# xmcd CD database file
# Copyright (C) 1993-2000  Ti Kan
#
# Track frame offsets:
#	900
#	24450
#	43125
#	58425
#	79575
#	101175
#	123015
#	134625
#	151605
#	177660
#
# Disc length: 2700 seconds
#
# Revision: 7
# Processed by: cddbd v1.5.2PL0 Copyright (c) Steve Scherf et al.
# Submitted via: xmcd 2.6 PL0
#
DISCID=800a7e0a,880a800a
DTITLE=Wings - Band On The Run
DYEAR=1999
DGENRE=
TTITLE0=Band On The Run
TTITLE1=Jet
TTITLE2=Bluebird
TTITLE3=Mrs Vandebilt
TTITLE4=Let Me Roll It
TTITLE5=Mamunia
TTITLE6=No Words
TTITLE7=Helen Wheels
TTITLE8=Picasso's Last Words (Drink To Me)
TTITLE9=Country Breaker
EXTD=orrigional release:\n YEAR: 1999
EXTT0=
EXTT1=
EXTT2=
EXTT3=
EXTT4=
EXTT5=
EXTT6=
EXTT7=
EXTT8=
EXTT9=
PLAYORDER=
